<svg xmlns="http://www.w3.org/2000/svg" width="182.156" height="54.97" viewBox="4.496 4.514 182.156 54.97"><path d="M122.373 24.268c-.164-3.502-1.16-5.822-2.818-7.905-1.679-2.052-4.803-3.777-8.487-3.777s-6.809 1.725-8.487 3.777c-1.658 2.083-2.654 4.403-2.818 7.905l-.006.114a23.5 23.5 0 0 0-.021.934c0 4.105 1.025 6.67 2.844 8.954 1.679 2.052 4.803 3.777 8.487 3.777s6.808-1.725 8.487-3.777c1.819-2.285 2.844-4.85 2.844-8.954 0-.322-.009-.631-.021-.934 0-.038-.002-.075-.004-.114zm-7.621 7.159c-.792.839-2.098 1.539-3.684 1.539s-2.892-.7-3.684-1.539c-1.399-1.539-1.725-3.824-1.725-6.11 0-.318.007-.636.022-.952l.001-.012c.015-.316.038-.629.072-.939.174-1.603.623-3.098 1.63-4.205.793-.84 2.099-1.539 3.684-1.539s2.891.699 3.684 1.539c1.007 1.107 1.457 2.602 1.631 4.205a16.065 16.065 0 0 1 .073.951c.015.316.022.634.022.952-.001 2.286-.327 4.571-1.726 6.11zm33.585-7.16c-.164-3.502-1.16-5.821-2.818-7.904-1.679-2.052-4.803-3.777-8.487-3.777s-6.809 1.725-8.487 3.777c-1.658 2.083-2.654 4.403-2.818 7.905l-.006.114a23.5 23.5 0 0 0-.021.934c0 4.105 1.025 6.67 2.844 8.954 1.679 2.052 4.803 3.777 8.487 3.777s6.808-1.725 8.487-3.777c1.819-2.285 2.844-4.85 2.844-8.954 0-.322-.009-.63-.021-.933 0-.038-.002-.077-.004-.116zm-7.621 7.16c-.792.839-2.098 1.539-3.684 1.539s-2.892-.7-3.684-1.539c-1.399-1.539-1.725-3.824-1.725-6.11 0-.318.007-.636.022-.952l.001-.012c.015-.316.038-.629.072-.939.174-1.603.623-3.098 1.63-4.205.793-.84 2.099-1.539 3.684-1.539s2.891.699 3.684 1.539c1.007 1.107 1.457 2.602 1.631 4.205a16.065 16.065 0 0 1 .073.951c.015.316.022.634.022.952-.001 2.286-.327 4.571-1.726 6.11zM9.01 44.709H4.496v11.118H9.01c1.27 0 2.383-.499 3.12-1.267 1.145-1.176 1.302-2.876 1.302-4.412s-.157-3.127-1.302-4.303c-.737-.768-1.851-1.136-3.12-1.136zm1.568 8.436c-.376.377-.925.543-1.568.543H6.634v-7.269H9.01c.643 0 1.192.23 1.568.607.784.784.8 2.033.8 3.052s-.016 2.284-.8 3.067zm4.608 2.681h2.138v-8.124h-2.138v8.124zm0-9.407h2.138v-2.138h-2.138v2.138zm10.82 8.312c-.768-.533-1.834-.615-2.649-.615h-1.348c-.408 0-.894-.044-.894-.529 0-.266.22-.437.408-.547.408.142.862.236 1.317.236 1.756 0 3.324-1.089 3.324-2.955a2.78 2.78 0 0 0-.423-1.47c.126-.392.456-.515.912-.515.047 0 .08.018.08.018v-1.521c0-.031-.331-.031-.457-.031-.69 0-1.279.313-1.623 1.019a3.605 3.605 0 0 0-1.831-.502c-1.834 0-3.329 1.051-3.329 2.994 0 .831.318 1.506.82 2.006-.659.408-.97.957-.97 1.646 0 .534.299 1.113.816 1.396-.627.313-.972.956-.972 1.662 0 .768.361 1.348.988 1.787.846.596 1.897.674 2.885.674 1.819 0 3.935-.614 3.935-2.761-.001-.783-.283-1.506-.989-1.992zm-3.167-5.938c.894 0 1.442.643 1.442 1.521s-.549 1.506-1.442 1.506-1.442-.628-1.442-1.506c0-.879.549-1.521 1.442-1.521zm.141 9.14c-.768 0-2.054-.081-2.054-1.116 0-.517.313-.991.737-.991H23.2c.737 0 1.944-.013 1.944.991 0 1.082-1.38 1.116-2.164 1.116zm5.462-2.107h2.138v-8.124h-2.138v8.124zm0-9.407h2.138v-2.138h-2.138v2.138zm6.841 6.685v-4.119h2.138v-1.283h-2.138v-2.735l-1.71.486v2.249h-1.71v1.283h1.71v4.292c0 1.568.67 2.508 2.316 2.508.58 0 1.105-.078 1.533-.22v-1.646a8.492 8.492 0 0 1-1.249.079c-.628 0-.89-.267-.89-.894zm10.69.549v-3.026c0-.549-.058-1.129-.262-1.646-.471-1.223-1.676-1.726-3.071-1.726-1.819 0-3.29.875-3.399 2.585h1.896c.047-.428.495-1.096 1.404-1.096 1.113 0 1.294.582 1.294 1.35v.502l-2.313.172c-1.552.109-2.717 1.003-2.717 2.555 0 1.333 1.025 2.556 2.969 2.556 1.16 0 2.111-.564 2.488-1.223.062.611.64 1.145 1.487 1.145.47 0 .652-.079 1.079-.22V54.14s-.201.031-.326.031c-.328-.001-.529-.142-.529-.518zm-2.138-1.223c0 1.207-.777 1.866-1.999 1.866-.611 0-1.117-.392-1.117-1.019 0-.659.515-1.019 1.111-1.066l2.005-.157v.376zm5.987.815v-8.964h-1.71v9.293c0 1.552.846 2.195 2.179 2.195.392 0 .387-.031.814-.109v-1.646s-.242.015-.414.015c-.674 0-.869-.314-.869-.784zm10.005-4.233c.597 0 1.019.196 1.255.557.125.204.22.698.236.698h1.928c-.032-.428-.251-1.231-.627-1.718-.564-.706-1.553-1.258-2.791-1.258s-2.273.609-2.838 1.299c-.611.769-.894 1.794-.894 2.986 0 1.191.282 2.214.894 2.983.564.69 1.599 1.287 2.838 1.287s2.227-.558 2.791-1.263c.376-.487.596-1.322.627-1.75h-1.928c-.016.428-.11.527-.236.731-.235.361-.658.601-1.255.601-.533 0-.924-.241-1.191-.523-.471-.517-.549-1.288-.549-2.056s.079-1.553.549-2.071a1.593 1.593 0 0 1 1.191-.503zm6.994-.177l-.173-1.133h-1.86v8.124h2.138v-4.258c0-1.317.83-2.305 2.21-2.305.22 0 .356.031.783.078V47.46c-.428-.031-.499-.003-.703-.003-.956.001-2.019.437-2.395 1.378zm10.795 4.818v-3.026c0-.549-.13-1.129-.333-1.646-.47-1.223-1.711-1.726-3.107-1.726-1.818 0-3.325.875-3.435 2.585h1.897c.047-.428.566-1.096 1.474-1.096 1.113 0 1.365.582 1.365 1.35v.502l-2.384.172c-1.552.109-2.752 1.003-2.752 2.555 0 1.333 1.007 2.556 2.951 2.556 1.16 0 2.103-.564 2.479-1.223.063.611.493 1.145 1.34 1.145.471 0 .505-.079.932-.22V54.14s.013.031-.112.031c-.328-.001-.315-.142-.315-.518zm-2.138-1.223c0 1.207-.848 1.866-2.07 1.866-.612 0-1.153-.392-1.153-1.019 0-.659.569-1.019 1.165-1.066l2.059-.157-.001.376zm11.973.674v-4.119h2.138v-1.283h-2.138v-2.735l-1.71.486v2.249H82.32v-.932c0-.58.254-.988.96-.988.517 0 .751.047 1.178.125v-1.568c-.428-.126-.954-.173-1.518-.173-1.756 0-2.758 1.066-2.758 2.571v.963h-1.283v1.283h1.283v6.842h2.138v-6.842h3.421v4.292c0 1.568.67 2.508 2.316 2.508.58 0 1.105-.078 1.533-.22v-1.646a8.492 8.492 0 0 1-1.249.079c-.629.002-.89-.265-.89-.892zm8.079-2.258c-.8-.125-1.004-.141-1.74-.235-.439-.062-.941-.235-.941-.815 0-.423.282-.721.627-.863.298-.125.564-.125.847-.125.408 0 .831.084 1.066.319.188.204.329.712.329.712h1.866c0-.428-.282-1.151-.722-1.621-.596-.643-1.583-.928-2.556-.928-1.019 0-1.881.312-2.477.829-.486.423-.83 1.01-.83 1.841 0 1.035.753 1.948 1.865 2.183.722.157 1.537.206 2.258.316.502.078.815.393.815.863 0 .894-1.004 1.036-1.662 1.036-.564 0-.925-.214-1.238-.465-.251-.204-.439-.632-.439-1.06h-1.834c0 .855.392 1.547.862 2.001.674.643 1.599.992 2.634.992 1.113 0 2.132-.256 2.791-.914.423-.424.705-.99.705-1.774 0-1.285-.941-2.088-2.226-2.292zM48.111 23.404v2.623c0 1.959-.457 4.15-1.856 5.456-.699.7-1.674 1.213-3.026 1.213a6.04 6.04 0 0 1-1.565-.186 4.184 4.184 0 0 1-.519-.178 3.23 3.23 0 0 1-.252-.117c-.038-.02-.077-.04-.113-.061a3.153 3.153 0 0 1-.229-.144c-.029-.02-.059-.039-.088-.06-.097-.072-.12-.148-.207-.23-.845-.798-1.125-2.052-1.125-3.642V13.066h-5.986v16.318c0 4.7 2.667 8.055 7.03 8.483h.004c.002 0 .005.047.007.048.203.027.409.074.619.088.244.019.493.044.749.044.031 0 .063.006.094.006 3.039-.028 5.701-1.426 6.855-3.78l.42 3.168h4.747V13.067h-5.559v10.337zm45.237-10.176c-1.86.53-3.473 1.614-4.244 3.543l-.513-3.705h-4.989V37.44h5.986V25.234c0-3.054 1.272-5.513 3.792-6.448.712-.264 1.472-.406 2.375-.406.653 0 1.529.093 1.957.233v-5.596c-.428-.094-1.179-.139-1.786-.139a9.302 9.302 0 0 0-2.578.35zM69.065 17.95c.583 0 1.096.063 1.544.186.183.05.352.112.514.182.018.008.036.033.054.041.162.073.315.266.456.266h.039c1.159.855 1.667 2.105 1.667 3.942V37.44h5.559V21.26c0-5.176-3.025-8.622-8.201-8.622h.077v-.026c0 .028-5.786 1.341-6.94 3.695l-.505-3.242h-4.956V37.44h5.986V24.619c0-1.958.347-4.15 1.747-5.455.7-.701 1.607-1.214 2.959-1.214zm109.63-5.354c-3.264 0-5.915 1.465-7.36 3.984-1.173-2.392-3.412-3.941-6.638-3.941h-.01c-.35 0-.225-.024-.335-.024-3.218 0-5.552 1.507-6.904 3.746l-.47-3.295h-4.96v24.373h5.986V24.208c0-3.031 1.446-6.458 4.757-6.458.8 0 1.187.019 1.937.447h.044c1.236.428 1.813 2.02 1.813 4.192v15.05h5.559V24.208c0-3.031 1.474-6.529 4.786-6.529 2.938 0 3.766 1.726 3.766 4.71v15.05h5.986V21.083c.002-5.036-2.781-8.487-7.957-8.487zM10.91 25.039h7.178l5.453 12.4h6.52l-6.007-13.512c4.092-1.703 6.005-5.374 6.005-9.249l-.001-.022.001.04c0-5.309-3.586-10.182-11.455-10.182H4.496V37.44h6.414V25.039zm7.694-15.393c3.399 0 5.561 2.335 5.561 4.989v.047c0 2.653-2.162 4.799-5.561 4.799H10.91V9.645l7.694.001z"/></svg>