<?xml version="1.0" encoding="utf-8"?>
<!-- Generator: Adobe Illustrator 17.0.0, SVG Export Plug-In . SVG Version: 6.00 Build 0)  -->
<!DOCTYPE svg PUBLIC "-//W3C//DTD SVG 1.1//EN" "http://www.w3.org/Graphics/SVG/1.1/DTD/svg11.dtd">
<svg version="1.1" id="Capa_1" xmlns="http://www.w3.org/2000/svg" xmlns:xlink="http://www.w3.org/1999/xlink" x="0px" y="0px"
	 width="182px" height="55px" viewBox="0 78.566 425 127" enable-background="new 0 78.566 425 127" xml:space="preserve">
<path fill="#F42635" d="M275.107,125.394c-0.383-8.185-2.712-13.607-6.587-18.475c-3.925-4.797-11.228-8.83-19.84-8.83
	c-8.612,0-15.916,4.033-19.84,8.83c-3.876,4.869-6.205,10.291-6.587,18.477c-0.004,0.09-0.009,0.178-0.013,0.268
	c-0.029,0.71-0.049,1.433-0.049,2.185c0,9.596,2.397,15.591,6.649,20.931c3.924,4.797,11.227,8.83,19.84,8.83
	c8.611,0,15.915-4.033,19.84-8.83c4.251-5.342,6.649-11.337,6.649-20.931c0-0.752-0.02-1.474-0.049-2.183
	C275.116,125.574,275.112,125.485,275.107,125.394z M257.292,142.13c-1.853,1.962-4.905,3.598-8.611,3.598
	c-3.706,0-6.76-1.636-8.612-3.598c-3.269-3.598-4.032-8.939-4.032-14.282c0-0.744,0.016-1.487,0.051-2.226
	c0-0.01,0.001-0.02,0.001-0.029c0.036-0.738,0.09-1.47,0.169-2.194l0,0c0.406-3.746,1.457-7.241,3.81-9.829
	c1.853-1.964,4.906-3.598,8.612-3.598s6.759,1.634,8.611,3.598c2.355,2.589,3.405,6.083,3.812,9.829l0,0
	c0.079,0.725,0.133,1.456,0.169,2.194c0,0.01,0.001,0.02,0.001,0.029c0.035,0.738,0.051,1.482,0.051,2.226
	C261.326,133.192,260.563,138.532,257.292,142.13z"/>
<path fill="#F42635" d="M335.8,125.394c-0.383-8.185-2.712-13.607-6.587-18.475c-3.925-4.797-11.228-8.83-19.84-8.83
	s-15.916,4.033-19.84,8.83c-3.876,4.869-6.204,10.291-6.587,18.477c-0.004,0.09-0.009,0.178-0.013,0.268
	c-0.029,0.71-0.049,1.433-0.049,2.185c0,9.596,2.397,15.591,6.649,20.931c3.924,4.797,11.227,8.83,19.84,8.83
	c8.611,0,15.915-4.033,19.84-8.83c4.251-5.342,6.649-11.337,6.649-20.931c0-0.752-0.02-1.474-0.049-2.183
	C335.809,125.574,335.804,125.485,335.8,125.394z M317.985,142.13c-1.853,1.962-4.905,3.598-8.611,3.598s-6.76-1.636-8.612-3.598
	c-3.269-3.598-4.032-8.939-4.032-14.282c0-0.744,0.016-1.487,0.051-2.226c0-0.01,0.001-0.02,0.001-0.029
	c0.036-0.738,0.09-1.47,0.169-2.194l0,0c0.406-3.746,1.457-7.241,3.81-9.829c1.853-1.964,4.906-3.598,8.612-3.598
	s6.759,1.634,8.611,3.598c2.355,2.589,3.405,6.083,3.812,9.829l0,0c0.079,0.725,0.133,1.456,0.169,2.194
	c0,0.01,0.001,0.02,0.001,0.029c0.035,0.738,0.051,1.482,0.051,2.226C322.018,133.192,321.256,138.532,317.985,142.13z"/>
<path fill="#F42635" d="M101.125,123.375v4.473v1.658c0,4.579-0.872,9.702-4.143,12.753c-1.634,1.636-3.814,2.835-6.976,2.835
	c-1.364,0-2.563-0.149-3.61-0.436l0,0c-4.481-1.225-6.2-4.967-6.2-10.356V99.528H66.569v37.828c0,12.099,7.521,20.276,19.621,20.276
	c0.073,0,0.146,0,0.219-0.001c7.105-0.065,13.326-3.325,16.024-8.829l0.981,7.413h11.338v-28.366v-4.473V99.528h-13.627
	L101.125,123.375L101.125,123.375z"/>
<path fill="#F42635" d="M207.26,99.588c-4.348,1.238-8.118,3.934-9.921,8.443l-1.199-8.504h-11.555v23.847v4.473v28.365h13.735
	v-28.365v-0.197c0-7.14,3.05-12.888,8.94-15.073c1.663-0.618,3.554-0.95,5.666-0.95c1.526,0,3.162,0.219,4.687,0.545v-13.08
	c-1.417-0.219-2.833-0.326-4.251-0.326C211.297,98.766,209.22,99.029,207.26,99.588z"/>
<path fill="#F42635" d="M406.579,98.111c-7.63,0-13.735,3.379-17.113,9.268c-2.743-5.591-7.929-9.039-15.472-9.258l0,0
	c-0.819-0.007-0.515-0.011-0.772-0.011c-7.522,0-12.973,3.707-16.134,8.94l-1.091-7.523h-11.337v56.686h13.517v-30.959
	c0-7.085,3.488-15.264,11.229-15.264c1.869,0,2.829,0.3,4.584,0.877v0.001c2.89,1.088,4.136,5.059,4.136,10.134v2.373v4.481v28.356
	h13.519v-28.356v-2.603c0-7.085,3.378-15.263,11.119-15.263c6.868,0,8.735,4.035,8.735,11.011v2.372h-0.015v32.839H425v-28.356
	v-4.482v-5.424C425.002,106.177,418.68,98.111,406.579,98.111z"/>
<path fill="#F42635" d="M154.313,98.089c-0.073,0-0.146,0-0.219,0v0.001l0,0c-7.105,0.066-13.326,3.326-16.023,8.83l-0.981-7.413
	h-11.339v56.685h13.627v-29.978c0-4.578,0.873-9.701,4.144-12.752c1.634-1.636,3.814-2.835,6.976-2.835
	c1.363,0,2.563,0.148,3.61,0.436c0.427,0.116,0.824,0.262,1.2,0.425c0.042,0.019,0.085,0.036,0.127,0.055
	c0.379,0.171,0.736,0.362,1.065,0.577l0,0c2.709,1.763,3.806,5.006,3.806,9.3v1.957h-0.001v32.816h13.627v-28.343v-4.473v-5.011
	C173.933,106.265,166.412,98.089,154.313,98.089z"/>
<path fill="#F42635" d="M59.319,102.987c0-0.018-0.002-0.037-0.002-0.055c0-0.019,0.002-0.037,0.002-0.055
	c0-12.409-8.382-23.948-26.777-23.948H14.193H7.088H0v77.285h14.194v-29.28h17.142l12.746,29.28h15.24l-14.042-31.6
	C54.847,120.631,59.319,112.043,59.319,102.987z M14.193,91.229h18.349c7.945,0,12.734,5.442,12.734,11.648v0.109
	c0,6.202-4.789,11.647-12.734,11.647H14.193V91.229z"/>
<path d="M13.449,195.555c-1.364,1.332-3.378,2.274-5.814,2.274H0v-23.032h7.634c2.436,0,4.45,0.942,5.814,2.273
	c2.534,2.437,2.794,6.01,2.794,9.226C16.243,189.511,15.983,193.119,13.449,195.555z M12.214,178.175
	c-1.169-1.104-2.859-1.722-4.581-1.722H1.688v19.72h5.945c1.722,0,3.411-0.618,4.581-1.722c2.144-2.079,2.306-5.394,2.306-8.154
	C14.52,183.535,14.358,180.222,12.214,178.175z"/>
<path d="M21.211,177.07v-2.273h2.274v2.273H21.211z M21.503,197.829v-16.243h1.722v16.243H21.503z"/>
<path d="M42.035,203.286c-1.396,1.43-3.834,1.917-6.433,1.917c-2.469,0-4.678-0.487-6.042-1.884
	c-0.715-0.748-1.137-1.689-1.137-2.925c0-1.559,0.91-3.087,2.437-3.801c-1.137-0.324-2.047-1.526-2.047-2.664
	c0-1.396,0.715-2.371,1.95-3.086c-1.008-0.976-1.625-2.307-1.625-3.996c0-3.508,2.664-5.685,6.075-5.685
	c1.429,0,2.728,0.39,3.8,1.103c0.424-1.396,1.819-2.209,3.281-2.209c0.195,0,0.423,0.065,0.617,0.065v1.396
	c-0.194,0-0.422-0.065-0.617-0.065c-1.169,0-2.015,0.65-2.241,1.754c0.812,0.943,1.299,2.177,1.299,3.639
	c0,3.508-2.728,5.62-6.14,5.62c-1.201,0-2.307-0.261-3.25-0.748c-0.844,0.325-1.624,1.008-1.624,2.015
	c0,0.779,0.488,1.267,1.138,1.526c0.584,0.228,1.559,0.26,2.177,0.26h3.54c2.079,0,3.735,0.521,4.776,1.592
	c0.779,0.78,1.298,1.722,1.298,3.151C43.269,201.533,42.749,202.54,42.035,203.286z M40.866,198.252
	c-0.748-0.78-2.015-1.202-3.932-1.202h-4.287c-1.364,0.325-2.696,1.43-2.696,3.346c0,0.846,0.357,1.56,0.877,2.047
	c1.169,1.103,3.185,1.299,4.809,1.299s3.93-0.195,5.165-1.429c0.487-0.487,0.845-1.202,0.845-2.047
	C41.645,199.356,41.353,198.771,40.866,198.252z M35.213,182.626c-2.534,0-4.483,1.624-4.483,4.224c0,2.599,1.949,4.158,4.483,4.158
	c2.533,0,4.516-1.56,4.516-4.158C39.729,184.25,37.746,182.626,35.213,182.626z"/>
<path d="M46.972,177.07v-2.273h2.274v2.273H46.972z M47.265,197.829v-16.243h1.721v16.243H47.265z"/>
<path d="M60.55,198.057c-3.02,0-4.189-1.917-4.189-4.743v-10.233h-3.249v-1.494h3.249v-4.482l1.624-0.391v4.873h5.035v1.494h-5.035
	v10.168c0,1.917,0.52,3.281,2.696,3.281c0.877,0,1.688-0.13,2.566-0.293v1.43C62.337,197.862,61.46,198.057,60.55,198.057z"/>
<path d="M80.236,197.927c-2.014,0-2.565-1.462-2.565-3.185c-0.879,2.307-3.346,3.509-5.849,3.509c-3.151,0-5.587-1.885-5.587-5.004
	c0-2.892,2.241-4.613,5.458-4.841l5.977-0.422v-1.592c0-2.696-1.819-3.703-4.289-3.703c-2.566,0-4.516,1.169-4.678,3.573h-1.624
	c0.227-3.281,2.794-5.101,6.302-5.101c2.21,0,4.613,0.747,5.489,2.989c0.391,1.007,0.424,2.046,0.424,3.119v7.407
	c0,1.104,0.162,1.754,1.267,1.754c0.194,0,0.292,0,0.455-0.032v1.429C80.627,197.895,80.627,197.927,80.236,197.927z
	 M77.671,189.481l-5.815,0.357c-2.404,0.162-3.963,1.429-3.963,3.41c0,2.34,1.754,3.509,4.06,3.509c4.094,0,5.718-3.313,5.718-6.433
	V189.481z"/>
<path d="M88.941,198.025c-2.079,0-3.248-1.072-3.248-3.443v-20.207h1.624v20.141c0,1.104,0.326,1.949,1.689,1.949
	c0.65,0,0.942,0,1.396-0.064v1.429C90.046,197.927,89.625,198.025,88.941,198.025z"/>
<path d="M116.067,196.238c-1.657,1.332-3.736,1.592-5.782,1.592h-8.154v-23.032h8.154c1.722,0,3.54,0.26,5.003,1.233
	c1.461,0.976,2.371,2.697,2.371,4.419c0,2.501-1.039,4.678-3.67,5.393c2.858,0.683,4.19,2.989,4.19,5.62
	C118.179,193.282,117.529,195.068,116.067,196.238z M110.285,176.388h-6.466v8.609h6.466c3.184,0,5.651-0.748,5.651-4.418
	C115.937,177.363,113.079,176.388,110.285,176.388z M110.285,186.622h-6.466v9.616h6.466c3.151,0,6.172-0.91,6.172-4.905
	C116.456,187.564,113.631,186.622,110.285,186.622z"/>
<path d="M134.356,197.797l-0.195-2.957c-0.91,2.079-3.217,3.378-5.489,3.378c-3.736,0-5.718-2.307-5.718-5.944v-10.721h1.624v10.623
	c0,2.827,1.234,4.451,4.191,4.451c3.995,0,5.393-3.443,5.393-6.953v-8.121h1.624v16.243L134.356,197.797L134.356,197.797z"/>
<path d="M152.709,196.302c-1.169,1.299-3.118,1.949-5.263,1.949c-2.209,0-4.093-0.683-5.328-2.079
	c-0.91-1.04-1.299-1.949-1.364-3.281h1.656c0.098,0.976,0.521,1.819,1.202,2.502c0.942,0.91,2.274,1.299,3.833,1.299
	c1.689,0,3.021-0.39,3.833-1.201c0.586-0.585,0.878-1.137,0.878-2.079c0-1.462-1.04-2.697-2.989-2.957l-3.152-0.422
	c-1.331-0.163-2.761-0.586-3.67-1.625c-0.585-0.682-0.91-1.526-0.91-2.566c0-1.299,0.553-2.371,1.396-3.151
	c1.17-1.072,2.762-1.526,4.45-1.526c1.95,0,3.801,0.617,4.906,1.916c0.748,0.878,1.202,1.949,1.234,2.989h-1.624
	c-0.065-0.52-0.292-1.331-0.812-1.949c-0.747-0.877-2.014-1.429-3.704-1.429c-1.267,0-2.208,0.228-2.923,0.747
	c-0.812,0.585-1.267,1.364-1.267,2.242c0,1.364,0.682,2.404,3.151,2.728l3.087,0.423c3.054,0.423,4.482,2.502,4.482,4.483
	C153.814,194.515,153.424,195.491,152.709,196.302z"/>
<path d="M158.718,177.07v-2.273h2.274v2.273H158.718z M159.011,197.829v-16.243h1.722v16.243H159.011z"/>
<path d="M178.503,197.829v-10.623c0-2.826-1.234-4.451-4.19-4.451c-3.996,0-5.394,3.443-5.394,6.953v8.121h-1.624v-16.243h1.429
	l0.195,2.957c0.91-2.047,3.217-3.378,5.49-3.378c3.735,0,5.717,2.307,5.717,5.944v10.721H178.503z"/>
<path d="M198.871,190.097h-12.41c0.032,1.884,0.65,3.639,1.688,4.873c0.91,1.073,2.177,1.722,3.932,1.722
	c1.429,0,2.663-0.52,3.54-1.429c0.585-0.618,1.04-1.332,1.234-2.307h1.688c-0.227,1.396-0.91,2.534-1.819,3.41
	c-1.169,1.169-2.794,1.885-4.644,1.885c-2.34,0-3.996-0.976-5.166-2.307c-1.332-1.56-2.079-3.703-2.079-6.173
	c0-2.046,0.324-4.06,1.591-5.782c1.364-1.852,3.249-2.826,5.522-2.826c4.387,0,6.952,3.768,6.952,7.861
	C198.902,189.416,198.871,189.708,198.871,190.097z M191.95,182.691c-3.346,0-5.457,2.696-5.457,5.912h10.753
	C197.18,185.516,195.264,182.691,191.95,182.691z"/>
<path d="M214.235,196.302c-1.169,1.299-3.119,1.949-5.264,1.949c-2.208,0-4.093-0.683-5.328-2.079
	c-0.91-1.04-1.298-1.949-1.364-3.281h1.657c0.098,0.976,0.52,1.819,1.202,2.502c0.941,0.91,2.273,1.299,3.832,1.299
	c1.69,0,3.022-0.39,3.834-1.201c0.585-0.585,0.877-1.137,0.877-2.079c0-1.462-1.039-2.697-2.989-2.957l-3.151-0.422
	c-1.331-0.163-2.761-0.586-3.67-1.625c-0.586-0.682-0.91-1.526-0.91-2.566c0-1.299,0.553-2.371,1.395-3.151
	c1.17-1.072,2.763-1.526,4.451-1.526c1.949,0,3.801,0.617,4.906,1.916c0.747,0.878,1.201,1.949,1.233,2.989h-1.624
	c-0.064-0.52-0.292-1.331-0.812-1.949c-0.747-0.877-2.014-1.429-3.703-1.429c-1.267,0-2.209,0.228-2.924,0.747
	c-0.812,0.585-1.267,1.364-1.267,2.242c0,1.364,0.683,2.404,3.151,2.728l3.087,0.423c3.055,0.423,4.483,2.502,4.483,4.483
	C215.34,194.515,214.95,195.491,214.235,196.302z"/>
<path d="M230.867,196.302c-1.169,1.299-3.119,1.949-5.263,1.949c-2.21,0-4.094-0.683-5.328-2.079c-0.91-1.04-1.3-1.949-1.364-3.281
	h1.656c0.098,0.976,0.521,1.819,1.201,2.502c0.943,0.91,2.274,1.299,3.834,1.299c1.688,0,3.021-0.39,3.833-1.201
	c0.585-0.585,0.878-1.137,0.878-2.079c0-1.462-1.041-2.697-2.989-2.957l-3.151-0.422c-1.333-0.163-2.763-0.586-3.672-1.625
	c-0.584-0.682-0.91-1.526-0.91-2.566c0-1.299,0.553-2.371,1.397-3.151c1.169-1.072,2.761-1.526,4.45-1.526
	c1.949,0,3.801,0.617,4.905,1.916c0.748,0.878,1.202,1.949,1.235,2.989h-1.624c-0.066-0.52-0.293-1.331-0.812-1.949
	c-0.748-0.877-2.015-1.429-3.704-1.429c-1.266,0-2.209,0.228-2.924,0.747c-0.812,0.585-1.267,1.364-1.267,2.242
	c0,1.364,0.683,2.404,3.151,2.728l3.087,0.423c3.054,0.423,4.482,2.502,4.482,4.483
	C231.971,194.515,231.582,195.491,230.867,196.302z"/>
<path d="M251.429,198.252c-2.208,0-4.482-0.91-6.074-2.502c-2.469-2.502-2.696-6.172-2.696-9.454c0-3.28,0.228-6.92,2.696-9.421
	c1.592-1.592,3.866-2.502,6.074-2.502c4.582,0,7.83,3.217,8.187,7.473h-1.755c-0.292-3.411-2.794-5.815-6.433-5.815
	c-2.046,0-3.605,0.715-4.84,1.981c-2.079,2.145-2.177,5.522-2.177,8.284c0,2.762,0.13,6.173,2.209,8.316
	c1.267,1.299,2.892,1.981,4.808,1.981c3.639,0,6.141-2.403,6.433-5.814h1.755C259.259,195.036,256.011,198.252,251.429,198.252z"/>
<path d="M274.623,196.302c-1.136,1.137-2.729,1.949-4.742,1.949c-2.015,0-3.606-0.812-4.744-1.949
	c-1.688-1.689-2.306-3.833-2.306-6.595c0-2.762,0.617-4.906,2.306-6.595c1.137-1.137,2.729-1.949,4.744-1.949
	c2.013,0,3.605,0.812,4.742,1.949c1.689,1.688,2.308,3.833,2.308,6.595C276.931,192.469,276.313,194.613,274.623,196.302z
	 M273.454,184.185c-0.845-0.878-2.014-1.43-3.572-1.43c-1.56,0-2.729,0.553-3.574,1.43c-1.462,1.526-1.819,3.41-1.819,5.522
	c0,2.111,0.357,3.995,1.819,5.521c0.846,0.878,2.015,1.43,3.574,1.43c1.559,0,2.728-0.553,3.572-1.43
	c1.462-1.526,1.819-3.41,1.819-5.521C275.273,187.596,274.916,185.711,273.454,184.185z"/>
<path d="M293.172,197.829v-10.623c0-2.826-1.234-4.451-4.19-4.451c-3.996,0-5.393,3.443-5.393,6.953v8.121h-1.624v-16.243h1.429
	l0.195,2.957c0.91-2.047,3.216-3.378,5.49-3.378c3.735,0,5.717,2.307,5.717,5.944v10.721H293.172z"/>
<path d="M311.395,196.302c-1.169,1.299-3.118,1.949-5.263,1.949c-2.209,0-4.093-0.683-5.328-2.079
	c-0.91-1.04-1.299-1.949-1.364-3.281h1.656c0.098,0.976,0.521,1.819,1.202,2.502c0.942,0.91,2.274,1.299,3.833,1.299
	c1.689,0,3.021-0.39,3.833-1.201c0.586-0.585,0.878-1.137,0.878-2.079c0-1.462-1.04-2.697-2.989-2.957l-3.152-0.422
	c-1.331-0.163-2.761-0.586-3.67-1.625c-0.585-0.682-0.91-1.526-0.91-2.566c0-1.299,0.553-2.371,1.396-3.151
	c1.17-1.072,2.762-1.526,4.45-1.526c1.95,0,3.801,0.617,4.906,1.916c0.748,0.878,1.202,1.949,1.234,2.989h-1.624
	c-0.065-0.52-0.292-1.331-0.812-1.949c-0.747-0.877-2.014-1.429-3.704-1.429c-1.267,0-2.208,0.228-2.923,0.747
	c-0.812,0.585-1.267,1.364-1.267,2.242c0,1.364,0.682,2.404,3.151,2.728l3.087,0.423c3.054,0.423,4.482,2.502,4.482,4.483
	C312.5,194.515,312.111,195.491,311.395,196.302z"/>
<path d="M328.613,197.797l-0.195-2.957c-0.91,2.079-3.217,3.378-5.49,3.378c-3.735,0-5.717-2.307-5.717-5.944v-10.721h1.624v10.623
	c0,2.827,1.233,4.451,4.19,4.451c3.995,0,5.393-3.443,5.393-6.953v-8.121h1.624v16.243L328.613,197.797L328.613,197.797z"/>
<path d="M339.624,198.025c-2.079,0-3.249-1.072-3.249-3.443v-20.207H338v20.141c0,1.104,0.326,1.949,1.689,1.949
	c0.65,0,0.942,0,1.396-0.064v1.429C340.729,197.927,340.308,198.025,339.624,198.025z"/>
<path d="M350.539,198.057c-3.021,0-4.19-1.917-4.19-4.743v-10.233H343.1v-1.494h3.249v-4.482l1.624-0.391v4.873h5.036v1.494h-5.036
	v10.168c0,1.917,0.521,3.281,2.697,3.281c0.877,0,1.688-0.13,2.565-0.293v1.43C352.326,197.862,351.449,198.057,350.539,198.057z"/>
<path d="M370.225,197.927c-2.015,0-2.566-1.462-2.566-3.185c-0.878,2.307-3.346,3.509-5.848,3.509c-3.151,0-5.587-1.885-5.587-5.004
	c0-2.892,2.241-4.613,5.457-4.841l5.977-0.422v-1.592c0-2.696-1.819-3.703-4.288-3.703c-2.567,0-4.516,1.169-4.679,3.573h-1.624
	c0.228-3.281,2.795-5.101,6.303-5.101c2.209,0,4.613,0.747,5.489,2.989c0.391,1.007,0.423,2.046,0.423,3.119v7.407
	c0,1.104,0.163,1.754,1.267,1.754c0.194,0,0.292,0,0.455-0.032v1.429C370.616,197.895,370.616,197.927,370.225,197.927z
	 M367.659,189.481l-5.814,0.357c-2.405,0.162-3.964,1.429-3.964,3.41c0,2.34,1.754,3.509,4.061,3.509
	c4.092,0,5.717-3.313,5.717-6.433V189.481z"/>
<path d="M386.988,197.829v-10.623c0-2.826-1.233-4.451-4.19-4.451c-3.995,0-5.394,3.443-5.394,6.953v8.121h-1.624v-16.243h1.429
	l0.195,2.957c0.91-2.047,3.218-3.378,5.49-3.378c3.735,0,5.717,2.307,5.717,5.944v10.721H386.988z"/>
<path d="M400.371,198.252c-2.015,0-3.639-0.78-4.776-1.917c-1.689-1.689-2.273-3.865-2.273-6.627c0-2.762,0.584-4.938,2.273-6.628
	c1.137-1.137,2.762-1.916,4.776-1.916c3.377,0,5.879,2.209,6.268,5.489h-1.688c-0.357-2.241-2.112-3.898-4.58-3.898
	c-1.56,0-2.763,0.521-3.606,1.397c-1.461,1.526-1.787,3.442-1.787,5.555c0,2.111,0.326,4.06,1.787,5.587
	c0.845,0.878,2.047,1.364,3.606,1.364c2.501,0,4.223-1.754,4.612-3.963h1.722C406.283,195.848,403.783,198.252,400.371,198.252z"/>
<path d="M415.277,201.305c-0.812,2.111-2.177,3.313-4.387,3.313c-1.298,0-2.046-0.293-2.046-0.293v-1.364
	c0,0,1.136,0.195,1.981,0.195c1.56,0,2.404-1.008,2.956-2.404l1.04-2.664l-6.66-16.503h1.754l5.685,14.424l5.458-14.424h1.754
	L415.277,201.305z"/>
</svg>
