<?xml version="1.0" encoding="utf-8"?>
<!-- Generator: Adobe Illustrator 17.0.0, SVG Export Plug-In . SVG Version: 6.00 Build 0)  -->
<!DOCTYPE svg PUBLIC "-//W3C//DTD SVG 1.1//EN" "http://www.w3.org/Graphics/SVG/1.1/DTD/svg11.dtd">
<svg version="1.1" id="Capa_1" xmlns="http://www.w3.org/2000/svg" xmlns:xlink="http://www.w3.org/1999/xlink" x="0px" y="0px"
	 width="60px" height="60px" viewBox="0 0 60 60" enable-background="new 0 0 60 60" xml:space="preserve">
<path d="M34.772,60h11.836L35.695,35.397c7.424-3.093,10.909-9.773,10.909-16.803c0-0.014-0.001-0.041-0.001-0.054
	c0-0.014,0.001,0.022,0.001,0.009C46.605,8.91,40.096,0,25.809,0h-14.25H6.04H0v60h11.786V37.5h13.086L34.772,60z M11.787,9.643
	H25.81c6.171,0,9.549,4.023,9.549,8.841v0.085c0,4.817-3.377,9.288-9.549,9.288H11.787V9.643z"/>
</svg>
