<svg xmlns="http://www.w3.org/2000/svg" width="182" height="55" viewBox="0 78.566 425 127"><path fill="#F42635" d="M275.107 125.394c-.383-8.185-2.712-13.607-6.587-18.475-3.925-4.797-11.228-8.83-19.84-8.83s-15.916 4.033-19.84 8.83c-3.876 4.869-6.205 10.291-6.587 18.477l-.013.268c-.029.71-.049 1.433-.049 2.185 0 9.596 2.397 15.591 6.649 20.931 3.924 4.797 11.227 8.83 19.84 8.83 8.611 0 15.915-4.033 19.84-8.83 4.251-5.342 6.649-11.337 6.649-20.931a53.046 53.046 0 0 0-.062-2.455zm-17.815 16.736c-1.853 1.962-4.905 3.598-8.611 3.598-3.706 0-6.76-1.636-8.612-3.598-3.269-3.598-4.032-8.939-4.032-14.282 0-.744.016-1.487.051-2.226l.001-.029c.036-.738.09-1.47.169-2.194.406-3.746 1.457-7.241 3.81-9.829 1.853-1.964 4.906-3.598 8.612-3.598s6.759 1.634 8.611 3.598c2.355 2.589 3.405 6.083 3.812 9.829.079.725.133 1.456.169 2.194l.001.029c.035.738.051 1.482.051 2.226.002 5.344-.761 10.684-4.032 14.282zm78.508-16.736c-.383-8.185-2.712-13.607-6.587-18.475-3.925-4.797-11.228-8.83-19.84-8.83s-15.916 4.033-19.84 8.83c-3.876 4.869-6.204 10.291-6.587 18.477l-.013.268c-.029.71-.049 1.433-.049 2.185 0 9.596 2.397 15.591 6.649 20.931 3.924 4.797 11.227 8.83 19.84 8.83 8.611 0 15.915-4.033 19.84-8.83 4.251-5.342 6.649-11.337 6.649-20.931 0-.752-.02-1.474-.049-2.183l-.013-.272zm-17.815 16.736c-1.853 1.962-4.905 3.598-8.611 3.598s-6.76-1.636-8.612-3.598c-3.269-3.598-4.032-8.939-4.032-14.282 0-.744.016-1.487.051-2.226l.001-.029c.036-.738.09-1.47.169-2.194.406-3.746 1.457-7.241 3.81-9.829 1.853-1.964 4.906-3.598 8.612-3.598s6.759 1.634 8.611 3.598c2.355 2.589 3.405 6.083 3.812 9.829.079.725.133 1.456.169 2.194l.001.029c.035.738.051 1.482.051 2.226.001 5.344-.761 10.684-4.032 14.282zm-216.86-18.755v6.131c0 4.579-.872 9.702-4.143 12.753-1.634 1.636-3.814 2.835-6.976 2.835-1.364 0-2.563-.149-3.61-.436-4.481-1.225-6.2-4.967-6.2-10.356V99.528H66.569v37.828c0 12.099 7.521 20.276 19.621 20.276l.219-.001c7.105-.065 13.326-3.325 16.024-8.829l.981 7.413h11.338V99.528h-13.627v23.847zM207.26 99.588c-4.348 1.238-8.118 3.934-9.921 8.443l-1.199-8.504h-11.555v56.685h13.735V127.65c0-7.14 3.05-12.888 8.94-15.073 1.663-.618 3.554-.95 5.666-.95 1.526 0 3.162.219 4.687.545v-13.08a27.78 27.78 0 0 0-4.251-.326c-2.065 0-4.142.263-6.102.822zm199.319-1.477c-7.63 0-13.735 3.379-17.113 9.268-2.743-5.591-7.929-9.039-15.472-9.258-.819-.007-.515-.011-.772-.011-7.522 0-12.973 3.707-16.134 8.94l-1.091-7.523H344.66v56.686h13.517v-30.959c0-7.085 3.488-15.264 11.229-15.264 1.869 0 2.829.3 4.584.877v.001c2.89 1.088 4.136 5.059 4.136 10.134v35.21h13.519v-30.959c0-7.085 3.378-15.263 11.119-15.263 6.868 0 8.735 4.035 8.735 11.011v2.372h-.015v32.839H425V117.95c.002-11.773-6.32-19.839-18.421-19.839zm-252.266-.022h-.219v.001c-7.105.066-13.326 3.326-16.023 8.83l-.981-7.413h-11.339v56.685h13.627v-29.978c0-4.578.873-9.701 4.144-12.752 1.634-1.636 3.814-2.835 6.976-2.835 1.363 0 2.563.148 3.61.436.427.116.824.262 1.2.425l.127.055c.379.171.736.362 1.065.577 2.709 1.763 3.806 5.006 3.806 9.3v1.957h-.001v32.816h13.627v-37.827c.001-12.101-7.52-20.277-19.619-20.277zm-94.994 4.898l-.002-.055.002-.055c0-12.409-8.382-23.948-26.777-23.948H0v77.285h14.194v-29.28h17.142l12.746 29.28h15.24l-14.042-31.6c9.567-3.983 14.039-12.571 14.039-21.627zM14.193 91.229h18.349c7.945 0 12.734 5.442 12.734 11.648v.109c0 6.202-4.789 11.647-12.734 11.647H14.193V91.229z"/><path d="M13.449 195.555c-1.364 1.332-3.378 2.274-5.814 2.274H0v-23.032h7.634c2.436 0 4.45.942 5.814 2.273 2.534 2.437 2.794 6.01 2.794 9.226.001 3.215-.259 6.823-2.793 9.259zm-1.235-17.38c-1.169-1.104-2.859-1.722-4.581-1.722H1.688v19.72h5.945c1.722 0 3.411-.618 4.581-1.722 2.144-2.079 2.306-5.394 2.306-8.154 0-2.762-.162-6.075-2.306-8.122zm8.997-1.105v-2.273h2.274v2.273h-2.274zm.292 20.759v-16.243h1.722v16.243h-1.722zm20.532 5.457c-1.396 1.43-3.834 1.917-6.433 1.917-2.469 0-4.678-.487-6.042-1.884-.715-.748-1.137-1.689-1.137-2.925 0-1.559.91-3.087 2.437-3.801-1.137-.324-2.047-1.526-2.047-2.664 0-1.396.715-2.371 1.95-3.086-1.008-.976-1.625-2.307-1.625-3.996 0-3.508 2.664-5.685 6.075-5.685 1.429 0 2.728.39 3.8 1.103.424-1.396 1.819-2.209 3.281-2.209.195 0 .423.065.617.065v1.396c-.194 0-.422-.065-.617-.065-1.169 0-2.015.65-2.241 1.754.812.943 1.299 2.177 1.299 3.639 0 3.508-2.728 5.62-6.14 5.62-1.201 0-2.307-.261-3.25-.748-.844.325-1.624 1.008-1.624 2.015 0 .779.488 1.267 1.138 1.526.584.228 1.559.26 2.177.26h3.54c2.079 0 3.735.521 4.776 1.592.779.78 1.298 1.722 1.298 3.151.002 1.272-.518 2.279-1.232 3.025zm-1.169-5.034c-.748-.78-2.015-1.202-3.932-1.202h-4.287c-1.364.325-2.696 1.43-2.696 3.346 0 .846.357 1.56.877 2.047 1.169 1.103 3.185 1.299 4.809 1.299s3.93-.195 5.165-1.429a2.89 2.89 0 0 0 .845-2.047c-.002-.91-.294-1.495-.781-2.014zm-5.653-15.626c-2.534 0-4.483 1.624-4.483 4.224 0 2.599 1.949 4.158 4.483 4.158 2.533 0 4.516-1.56 4.516-4.158 0-2.6-1.983-4.224-4.516-4.224zm11.759-5.556v-2.273h2.274v2.273h-2.274zm.293 20.759v-16.243h1.721v16.243h-1.721zm13.285.228c-3.02 0-4.189-1.917-4.189-4.743v-10.233h-3.249v-1.494h3.249v-4.482l1.624-.391v4.873h5.035v1.494h-5.035v10.168c0 1.917.52 3.281 2.696 3.281.877 0 1.688-.13 2.566-.293v1.43c-.91.195-1.787.39-2.697.39zm19.686-.13c-2.014 0-2.565-1.462-2.565-3.185-.879 2.307-3.346 3.509-5.849 3.509-3.151 0-5.587-1.885-5.587-5.004 0-2.892 2.241-4.613 5.458-4.841l5.977-.422v-1.592c0-2.696-1.819-3.703-4.289-3.703-2.566 0-4.516 1.169-4.678 3.573h-1.624c.227-3.281 2.794-5.101 6.302-5.101 2.21 0 4.613.747 5.489 2.989.391 1.007.424 2.046.424 3.119v7.407c0 1.104.162 1.754 1.267 1.754.194 0 .292 0 .455-.032v1.429c-.389.068-.389.1-.78.1zm-2.565-8.446l-5.815.357c-2.404.162-3.963 1.429-3.963 3.41 0 2.34 1.754 3.509 4.06 3.509 4.094 0 5.718-3.313 5.718-6.433v-.843zm11.27 8.544c-2.079 0-3.248-1.072-3.248-3.443v-20.207h1.624v20.141c0 1.104.326 1.949 1.689 1.949.65 0 .942 0 1.396-.064v1.429a5.086 5.086 0 0 1-1.461.195zm27.126-1.787c-1.657 1.332-3.736 1.592-5.782 1.592h-8.154v-23.032h8.154c1.722 0 3.54.26 5.003 1.233 1.461.976 2.371 2.697 2.371 4.419 0 2.501-1.039 4.678-3.67 5.393 2.858.683 4.19 2.989 4.19 5.62 0 1.819-.65 3.605-2.112 4.775zm-5.782-19.85h-6.466v8.609h6.466c3.184 0 5.651-.748 5.651-4.418.001-3.216-2.857-4.191-5.651-4.191zm0 10.234h-6.466v9.616h6.466c3.151 0 6.172-.91 6.172-4.905-.001-3.769-2.826-4.711-6.172-4.711zm24.071 11.175l-.195-2.957c-.91 2.079-3.217 3.378-5.489 3.378-3.736 0-5.718-2.307-5.718-5.944v-10.721h1.624v10.623c0 2.827 1.234 4.451 4.191 4.451 3.995 0 5.393-3.443 5.393-6.953v-8.121h1.624v16.243l-1.43.001zm18.353-1.495c-1.169 1.299-3.118 1.949-5.263 1.949-2.209 0-4.093-.683-5.328-2.079-.91-1.04-1.299-1.949-1.364-3.281h1.656c.098.976.521 1.819 1.202 2.502.942.91 2.274 1.299 3.833 1.299 1.689 0 3.021-.39 3.833-1.201.586-.585.878-1.137.878-2.079 0-1.462-1.04-2.697-2.989-2.957l-3.152-.422c-1.331-.163-2.761-.586-3.67-1.625-.585-.682-.91-1.526-.91-2.566 0-1.299.553-2.371 1.396-3.151 1.17-1.072 2.762-1.526 4.45-1.526 1.95 0 3.801.617 4.906 1.916.748.878 1.202 1.949 1.234 2.989h-1.624c-.065-.52-.292-1.331-.812-1.949-.747-.877-2.014-1.429-3.704-1.429-1.267 0-2.208.228-2.923.747-.812.585-1.267 1.364-1.267 2.242 0 1.364.682 2.404 3.151 2.728l3.087.423c3.054.423 4.482 2.502 4.482 4.483.003 1.2-.387 2.176-1.102 2.987zm6.009-19.232v-2.273h2.274v2.273h-2.274zm.293 20.759v-16.243h1.722v16.243h-1.722zm19.492 0v-10.623c0-2.826-1.234-4.451-4.19-4.451-3.996 0-5.394 3.443-5.394 6.953v8.121h-1.624v-16.243h1.429l.195 2.957c.91-2.047 3.217-3.378 5.49-3.378 3.735 0 5.717 2.307 5.717 5.944v10.721h-1.623zm20.368-7.732h-12.41c.032 1.884.65 3.639 1.688 4.873.91 1.073 2.177 1.722 3.932 1.722 1.429 0 2.663-.52 3.54-1.429.585-.618 1.04-1.332 1.234-2.307h1.688c-.227 1.396-.91 2.534-1.819 3.41-1.169 1.169-2.794 1.885-4.644 1.885-2.34 0-3.996-.976-5.166-2.307-1.332-1.56-2.079-3.703-2.079-6.173 0-2.046.324-4.06 1.591-5.782 1.364-1.852 3.249-2.826 5.522-2.826 4.387 0 6.952 3.768 6.952 7.861.002.392-.029.684-.029 1.073zm-6.921-7.406c-3.346 0-5.457 2.696-5.457 5.912h10.753c-.066-3.087-1.982-5.912-5.296-5.912zm22.285 13.611c-1.169 1.299-3.119 1.949-5.264 1.949-2.208 0-4.093-.683-5.328-2.079-.91-1.04-1.298-1.949-1.364-3.281h1.657c.098.976.52 1.819 1.202 2.502.941.91 2.273 1.299 3.832 1.299 1.69 0 3.022-.39 3.834-1.201.585-.585.877-1.137.877-2.079 0-1.462-1.039-2.697-2.989-2.957l-3.151-.422c-1.331-.163-2.761-.586-3.67-1.625-.586-.682-.91-1.526-.91-2.566 0-1.299.553-2.371 1.395-3.151 1.17-1.072 2.763-1.526 4.451-1.526 1.949 0 3.801.617 4.906 1.916.747.878 1.201 1.949 1.233 2.989h-1.624c-.064-.52-.292-1.331-.812-1.949-.747-.877-2.014-1.429-3.703-1.429-1.267 0-2.209.228-2.924.747-.812.585-1.267 1.364-1.267 2.242 0 1.364.683 2.404 3.151 2.728l3.087.423c3.055.423 4.483 2.502 4.483 4.483.003 1.2-.387 2.176-1.102 2.987zm16.632 0c-1.169 1.299-3.119 1.949-5.263 1.949-2.21 0-4.094-.683-5.328-2.079-.91-1.04-1.3-1.949-1.364-3.281h1.656c.098.976.521 1.819 1.201 2.502.943.91 2.274 1.299 3.834 1.299 1.688 0 3.021-.39 3.833-1.201.585-.585.878-1.137.878-2.079 0-1.462-1.041-2.697-2.989-2.957l-3.151-.422c-1.333-.163-2.763-.586-3.672-1.625-.584-.682-.91-1.526-.91-2.566 0-1.299.553-2.371 1.397-3.151 1.169-1.072 2.761-1.526 4.45-1.526 1.949 0 3.801.617 4.905 1.916.748.878 1.202 1.949 1.235 2.989h-1.624c-.066-.52-.293-1.331-.812-1.949-.748-.877-2.015-1.429-3.704-1.429-1.266 0-2.209.228-2.924.747-.812.585-1.267 1.364-1.267 2.242 0 1.364.683 2.404 3.151 2.728l3.087.423c3.054.423 4.482 2.502 4.482 4.483.003 1.2-.386 2.176-1.101 2.987zm20.562 1.95c-2.208 0-4.482-.91-6.074-2.502-2.469-2.502-2.696-6.172-2.696-9.454 0-3.28.228-6.92 2.696-9.421 1.592-1.592 3.866-2.502 6.074-2.502 4.582 0 7.83 3.217 8.187 7.473h-1.755c-.292-3.411-2.794-5.815-6.433-5.815-2.046 0-3.605.715-4.84 1.981-2.079 2.145-2.177 5.522-2.177 8.284 0 2.762.13 6.173 2.209 8.316 1.267 1.299 2.892 1.981 4.808 1.981 3.639 0 6.141-2.403 6.433-5.814h1.755c-.357 4.257-3.605 7.473-8.187 7.473zm23.194-1.95c-1.136 1.137-2.729 1.949-4.742 1.949-2.015 0-3.606-.812-4.744-1.949-1.688-1.689-2.306-3.833-2.306-6.595 0-2.762.617-4.906 2.306-6.595 1.137-1.137 2.729-1.949 4.744-1.949 2.013 0 3.605.812 4.742 1.949 1.689 1.688 2.308 3.833 2.308 6.595 0 2.762-.618 4.906-2.308 6.595zm-1.169-12.117c-.845-.878-2.014-1.43-3.572-1.43-1.56 0-2.729.553-3.574 1.43-1.462 1.526-1.819 3.41-1.819 5.522 0 2.111.357 3.995 1.819 5.521.846.878 2.015 1.43 3.574 1.43 1.559 0 2.728-.553 3.572-1.43 1.462-1.526 1.819-3.41 1.819-5.521 0-2.111-.357-3.996-1.819-5.522zm19.718 13.644v-10.623c0-2.826-1.234-4.451-4.19-4.451-3.996 0-5.393 3.443-5.393 6.953v8.121h-1.624v-16.243h1.429l.195 2.957c.91-2.047 3.216-3.378 5.49-3.378 3.735 0 5.717 2.307 5.717 5.944v10.721h-1.624zm18.223-1.527c-1.169 1.299-3.118 1.949-5.263 1.949-2.209 0-4.093-.683-5.328-2.079-.91-1.04-1.299-1.949-1.364-3.281h1.656c.098.976.521 1.819 1.202 2.502.942.91 2.274 1.299 3.833 1.299 1.689 0 3.021-.39 3.833-1.201.586-.585.878-1.137.878-2.079 0-1.462-1.04-2.697-2.989-2.957l-3.152-.422c-1.331-.163-2.761-.586-3.67-1.625-.585-.682-.91-1.526-.91-2.566 0-1.299.553-2.371 1.396-3.151 1.17-1.072 2.762-1.526 4.45-1.526 1.95 0 3.801.617 4.906 1.916.748.878 1.202 1.949 1.234 2.989h-1.624c-.065-.52-.292-1.331-.812-1.949-.747-.877-2.014-1.429-3.704-1.429-1.267 0-2.208.228-2.923.747-.812.585-1.267 1.364-1.267 2.242 0 1.364.682 2.404 3.151 2.728l3.087.423c3.054.423 4.482 2.502 4.482 4.483.003 1.2-.386 2.176-1.102 2.987zm17.218 1.495l-.195-2.957c-.91 2.079-3.217 3.378-5.49 3.378-3.735 0-5.717-2.307-5.717-5.944v-10.721h1.624v10.623c0 2.827 1.233 4.451 4.19 4.451 3.995 0 5.393-3.443 5.393-6.953v-8.121h1.624v16.243l-1.429.001zm11.011.228c-2.079 0-3.249-1.072-3.249-3.443v-20.207H338v20.141c0 1.104.326 1.949 1.689 1.949.65 0 .942 0 1.396-.064v1.429a5.086 5.086 0 0 1-1.461.195zm10.915.032c-3.021 0-4.19-1.917-4.19-4.743v-10.233H343.1v-1.494h3.249v-4.482l1.624-.391v4.873h5.036v1.494h-5.036v10.168c0 1.917.521 3.281 2.697 3.281.877 0 1.688-.13 2.565-.293v1.43c-.909.195-1.786.39-2.696.39zm19.686-.13c-2.015 0-2.566-1.462-2.566-3.185-.878 2.307-3.346 3.509-5.848 3.509-3.151 0-5.587-1.885-5.587-5.004 0-2.892 2.241-4.613 5.457-4.841l5.977-.422v-1.592c0-2.696-1.819-3.703-4.288-3.703-2.567 0-4.516 1.169-4.679 3.573h-1.624c.228-3.281 2.795-5.101 6.303-5.101 2.209 0 4.613.747 5.489 2.989.391 1.007.423 2.046.423 3.119v7.407c0 1.104.163 1.754 1.267 1.754.194 0 .292 0 .455-.032v1.429c-.388.068-.388.1-.779.1zm-2.566-8.446l-5.814.357c-2.405.162-3.964 1.429-3.964 3.41 0 2.34 1.754 3.509 4.061 3.509 4.092 0 5.717-3.313 5.717-6.433v-.843zm19.329 8.348v-10.623c0-2.826-1.233-4.451-4.19-4.451-3.995 0-5.394 3.443-5.394 6.953v8.121h-1.624v-16.243h1.429l.195 2.957c.91-2.047 3.218-3.378 5.49-3.378 3.735 0 5.717 2.307 5.717 5.944v10.721h-1.623zm13.383.423c-2.015 0-3.639-.78-4.776-1.917-1.689-1.689-2.273-3.865-2.273-6.627 0-2.762.584-4.938 2.273-6.628 1.137-1.137 2.762-1.916 4.776-1.916 3.377 0 5.879 2.209 6.268 5.489h-1.688c-.357-2.241-2.112-3.898-4.58-3.898-1.56 0-2.763.521-3.606 1.397-1.461 1.526-1.787 3.442-1.787 5.555 0 2.111.326 4.06 1.787 5.587.845.878 2.047 1.364 3.606 1.364 2.501 0 4.223-1.754 4.612-3.963h1.722c-.422 3.153-2.922 5.557-6.334 5.557zm14.906 3.053c-.812 2.111-2.177 3.313-4.387 3.313-1.298 0-2.046-.293-2.046-.293v-1.364s1.136.195 1.981.195c1.56 0 2.404-1.008 2.956-2.404l1.04-2.664-6.66-16.503h1.754l5.685 14.424 5.458-14.424h1.754l-7.535 19.72z"/></svg>