<?xml version="1.0" encoding="utf-8"?>
<!-- Generator: Adobe Illustrator 17.0.0, SVG Export Plug-In . SVG Version: 6.00 Build 0)  -->
<!DOCTYPE svg PUBLIC "-//W3C//DTD SVG 1.1//EN" "http://www.w3.org/Graphics/SVG/1.1/DTD/svg11.dtd">
<svg version="1.1" id="Capa_1" xmlns="http://www.w3.org/2000/svg" xmlns:xlink="http://www.w3.org/1999/xlink" x="0px" y="0px"
	 width="182.156px" height="54.97px" viewBox="4.496 4.514 182.156 54.97" enable-background="new 4.496 4.514 182.156 54.97"
	 xml:space="preserve">
<g id="logorr">
	<path d="M122.373,24.268c-0.164-3.502-1.16-5.822-2.818-7.905c-1.679-2.052-4.803-3.777-8.487-3.777s-6.809,1.725-8.487,3.777
		c-1.658,2.083-2.654,4.403-2.818,7.905c-0.002,0.038-0.004,0.076-0.006,0.114c-0.012,0.304-0.021,0.613-0.021,0.934
		c0,4.105,1.025,6.67,2.844,8.954c1.679,2.052,4.803,3.777,8.487,3.777s6.808-1.725,8.487-3.777c1.819-2.285,2.844-4.85,2.844-8.954
		c0-0.322-0.009-0.631-0.021-0.934C122.377,24.344,122.375,24.307,122.373,24.268z M114.752,31.427
		c-0.792,0.839-2.098,1.539-3.684,1.539s-2.892-0.7-3.684-1.539c-1.399-1.539-1.725-3.824-1.725-6.11
		c0-0.318,0.007-0.636,0.022-0.952c0-0.004,0-0.008,0.001-0.012c0.015-0.316,0.038-0.629,0.072-0.939l0,0
		c0.174-1.603,0.623-3.098,1.63-4.205c0.793-0.84,2.099-1.539,3.684-1.539s2.891,0.699,3.684,1.539
		c1.007,1.107,1.457,2.602,1.631,4.205l0,0c0.033,0.31,0.057,0.623,0.072,0.939c0,0.004,0,0.008,0.001,0.012
		c0.015,0.316,0.022,0.634,0.022,0.952C116.477,27.603,116.151,29.888,114.752,31.427z M148.337,24.267
		c-0.164-3.502-1.16-5.821-2.818-7.904c-1.679-2.052-4.803-3.777-8.487-3.777s-6.809,1.725-8.487,3.777
		c-1.658,2.083-2.654,4.403-2.818,7.905c-0.002,0.038-0.004,0.076-0.006,0.114c-0.012,0.304-0.021,0.613-0.021,0.934
		c0,4.105,1.025,6.67,2.844,8.954c1.679,2.052,4.803,3.777,8.487,3.777s6.808-1.725,8.487-3.777c1.819-2.285,2.844-4.85,2.844-8.954
		c0-0.322-0.009-0.63-0.021-0.933C148.341,24.345,148.339,24.306,148.337,24.267z M140.716,31.427
		c-0.792,0.839-2.098,1.539-3.684,1.539s-2.892-0.7-3.684-1.539c-1.399-1.539-1.725-3.824-1.725-6.11
		c0-0.318,0.007-0.636,0.022-0.952c0-0.004,0-0.008,0.001-0.012c0.015-0.316,0.038-0.629,0.072-0.939l0,0
		c0.174-1.603,0.623-3.098,1.63-4.205c0.793-0.84,2.099-1.539,3.684-1.539s2.891,0.699,3.684,1.539
		c1.007,1.107,1.457,2.602,1.631,4.205l0,0c0.033,0.31,0.057,0.623,0.072,0.939c0,0.004,0,0.008,0.001,0.012
		c0.015,0.316,0.022,0.634,0.022,0.952C142.441,27.603,142.115,29.888,140.716,31.427z M9.01,44.709H4.496v11.118H9.01
		c1.27,0,2.383-0.499,3.12-1.267c1.145-1.176,1.302-2.876,1.302-4.412s-0.157-3.127-1.302-4.303
		C11.393,45.077,10.279,44.709,9.01,44.709z M10.578,53.145c-0.376,0.377-0.925,0.543-1.568,0.543H6.634v-7.269H9.01
		c0.643,0,1.192,0.23,1.568,0.607c0.784,0.784,0.8,2.033,0.8,3.052S11.362,52.362,10.578,53.145z M15.186,55.826h2.138v-8.124
		h-2.138C15.186,47.702,15.186,55.826,15.186,55.826z M15.186,46.419h2.138v-2.138h-2.138
		C15.186,44.281,15.186,46.419,15.186,46.419z M26.006,54.731c-0.768-0.533-1.834-0.615-2.649-0.615h-1.348
		c-0.408,0-0.894-0.044-0.894-0.529c0-0.266,0.22-0.437,0.408-0.547c0.408,0.142,0.862,0.236,1.317,0.236
		c1.756,0,3.324-1.089,3.324-2.955c0-0.549-0.157-1.031-0.423-1.47c0.126-0.392,0.456-0.515,0.912-0.515
		c0.047,0,0.08,0.018,0.08,0.018v-1.521c0-0.031-0.331-0.031-0.457-0.031c-0.69,0-1.279,0.313-1.623,1.019
		c-0.533-0.313-1.157-0.502-1.831-0.502c-1.834,0-3.329,1.051-3.329,2.994c0,0.831,0.318,1.506,0.82,2.006
		c-0.659,0.408-0.97,0.957-0.97,1.646c0,0.534,0.299,1.113,0.816,1.396c-0.627,0.313-0.972,0.956-0.972,1.662
		c0,0.768,0.361,1.348,0.988,1.787c0.846,0.596,1.897,0.674,2.885,0.674c1.819,0,3.935-0.614,3.935-2.761
		C26.994,55.94,26.712,55.217,26.006,54.731z M22.839,48.793c0.894,0,1.442,0.643,1.442,1.521s-0.549,1.506-1.442,1.506
		s-1.442-0.628-1.442-1.506C21.397,49.435,21.946,48.793,22.839,48.793z M22.98,57.933c-0.768,0-2.054-0.081-2.054-1.116
		c0-0.517,0.313-0.991,0.737-0.991H23.2c0.737,0,1.944-0.013,1.944,0.991C25.144,57.899,23.764,57.933,22.98,57.933z M28.442,55.826
		h2.138v-8.124h-2.138V55.826z M28.442,46.419h2.138v-2.138h-2.138V46.419z M35.283,53.104v-4.119h2.138v-1.283h-2.138v-2.735
		l-1.71,0.486v2.249h-1.71v1.283h1.71v4.292c0,1.568,0.67,2.508,2.316,2.508c0.58,0,1.105-0.078,1.533-0.22v-1.646
		c-0.428,0.063-0.842,0.079-1.249,0.079C35.545,53.998,35.283,53.731,35.283,53.104z M45.973,53.653v-3.026
		c0-0.549-0.058-1.129-0.262-1.646c-0.471-1.223-1.676-1.726-3.071-1.726c-1.819,0-3.29,0.875-3.399,2.585h1.896
		c0.047-0.428,0.495-1.096,1.404-1.096c1.113,0,1.294,0.582,1.294,1.35v0.502l-2.313,0.172c-1.552,0.109-2.717,1.003-2.717,2.555
		c0,1.333,1.025,2.556,2.969,2.556c1.16,0,2.111-0.564,2.488-1.223c0.062,0.611,0.64,1.145,1.487,1.145
		c0.47,0,0.652-0.079,1.079-0.22V54.14c0,0-0.201,0.031-0.326,0.031C46.174,54.17,45.973,54.029,45.973,53.653z M43.835,52.43
		c0,1.207-0.777,1.866-1.999,1.866c-0.611,0-1.117-0.392-1.117-1.019c0-0.659,0.515-1.019,1.111-1.066l2.005-0.157V52.43
		L43.835,52.43z M49.822,53.245v-8.964h-1.71v9.293c0,1.552,0.846,2.195,2.179,2.195c0.392,0,0.387-0.031,0.814-0.109v-1.646
		c0,0-0.242,0.015-0.414,0.015C50.017,54.029,49.822,53.715,49.822,53.245z M59.827,49.012c0.597,0,1.019,0.196,1.255,0.557
		c0.125,0.204,0.22,0.698,0.236,0.698h1.928c-0.032-0.428-0.251-1.231-0.627-1.718c-0.564-0.706-1.553-1.258-2.791-1.258
		S57.555,47.9,56.99,48.59c-0.611,0.769-0.894,1.794-0.894,2.986c0,1.191,0.282,2.214,0.894,2.983
		c0.564,0.69,1.599,1.287,2.838,1.287s2.227-0.558,2.791-1.263c0.376-0.487,0.596-1.322,0.627-1.75h-1.928
		c-0.016,0.428-0.11,0.527-0.236,0.731c-0.235,0.361-0.658,0.601-1.255,0.601c-0.533,0-0.924-0.241-1.191-0.523
		c-0.471-0.517-0.549-1.288-0.549-2.056s0.079-1.553,0.549-2.071C58.903,49.233,59.294,49.012,59.827,49.012z M66.821,48.835
		l-0.173-1.133h-1.86v8.124h2.138v-4.258c0-1.317,0.83-2.305,2.21-2.305c0.22,0,0.356,0.031,0.783,0.078V47.46
		c-0.428-0.031-0.499-0.003-0.703-0.003C68.26,47.458,67.197,47.894,66.821,48.835z M77.616,53.653v-3.026
		c0-0.549-0.13-1.129-0.333-1.646c-0.47-1.223-1.711-1.726-3.107-1.726c-1.818,0-3.325,0.875-3.435,2.585h1.897
		c0.047-0.428,0.566-1.096,1.474-1.096c1.113,0,1.365,0.582,1.365,1.35v0.502l-2.384,0.172c-1.552,0.109-2.752,1.003-2.752,2.555
		c0,1.333,1.007,2.556,2.951,2.556c1.16,0,2.103-0.564,2.479-1.223c0.063,0.611,0.493,1.145,1.34,1.145
		c0.471,0,0.505-0.079,0.932-0.22V54.14c0,0,0.013,0.031-0.112,0.031C77.603,54.17,77.616,54.029,77.616,53.653z M75.478,52.43
		c0,1.207-0.848,1.866-2.07,1.866c-0.612,0-1.153-0.392-1.153-1.019c0-0.659,0.569-1.019,1.165-1.066l2.059-0.157L75.478,52.43
		L75.478,52.43z M87.451,53.104v-4.119h2.138v-1.283h-2.138v-2.735l-1.71,0.486v2.249H82.32V46.77c0-0.58,0.254-0.988,0.96-0.988
		c0.517,0,0.751,0.047,1.178,0.125v-1.568c-0.428-0.126-0.954-0.173-1.518-0.173c-1.756,0-2.758,1.066-2.758,2.571V47.7h-1.283
		v1.283h1.283v6.842h2.138v-6.842h3.421v4.292c0,1.568,0.67,2.508,2.316,2.508c0.58,0,1.105-0.078,1.533-0.22v-1.646
		c-0.428,0.063-0.842,0.079-1.249,0.079C87.712,53.998,87.451,53.731,87.451,53.104z M95.53,50.846
		c-0.8-0.125-1.004-0.141-1.74-0.235c-0.439-0.062-0.941-0.235-0.941-0.815c0-0.423,0.282-0.721,0.627-0.863
		c0.298-0.125,0.564-0.125,0.847-0.125c0.408,0,0.831,0.084,1.066,0.319c0.188,0.204,0.329,0.712,0.329,0.712h1.866
		c0-0.428-0.282-1.151-0.722-1.621c-0.596-0.643-1.583-0.928-2.556-0.928c-1.019,0-1.881,0.312-2.477,0.829
		c-0.486,0.423-0.83,1.01-0.83,1.841c0,1.035,0.753,1.948,1.865,2.183c0.722,0.157,1.537,0.206,2.258,0.316
		c0.502,0.078,0.815,0.393,0.815,0.863c0,0.894-1.004,1.036-1.662,1.036c-0.564,0-0.925-0.214-1.238-0.465
		c-0.251-0.204-0.439-0.632-0.439-1.06h-1.834c0,0.855,0.392,1.547,0.862,2.001c0.674,0.643,1.599,0.992,2.634,0.992
		c1.113,0,2.132-0.256,2.791-0.914c0.423-0.424,0.705-0.99,0.705-1.774C97.756,51.853,96.815,51.05,95.53,50.846z M48.111,23.404
		v1.914v0.709c0,1.959-0.457,4.15-1.856,5.456c-0.699,0.7-1.674,1.213-3.026,1.213c-0.584,0-1.117-0.064-1.565-0.186
		c-0.137-0.037-0.276-0.082-0.401-0.13c-0.038-0.015-0.08-0.032-0.118-0.048c-0.086-0.036-0.172-0.075-0.252-0.117
		c-0.038-0.02-0.077-0.04-0.113-0.061c-0.079-0.045-0.155-0.093-0.229-0.144c-0.029-0.02-0.059-0.039-0.088-0.06
		c-0.097-0.072-0.12-0.148-0.207-0.23c-0.845-0.798-1.125-2.052-1.125-3.642V13.066h-5.986v16.318c0,4.7,2.667,8.055,7.03,8.483
		h0.004c0.002,0,0.005,0.047,0.007,0.048c0.203,0.027,0.409,0.074,0.619,0.088c0.244,0.019,0.493,0.044,0.749,0.044
		c0.031,0,0.063,0.006,0.094,0.006c3.039-0.028,5.701-1.426,6.855-3.78l0.42,3.168h4.747V25.318v-1.914V13.067h-5.559V23.404z
		 M93.348,13.228c-1.86,0.53-3.473,1.614-4.244,3.543l-0.513-3.705h-4.989v10.338v1.914V37.44h5.986V25.318v-0.084
		c0-3.054,1.272-5.513,3.792-6.448c0.712-0.264,1.472-0.406,2.375-0.406c0.653,0,1.529,0.093,1.957,0.233v-5.596
		c-0.428-0.094-1.179-0.139-1.786-0.139C95.043,12.877,94.187,12.989,93.348,13.228z M69.065,17.95c0.583,0,1.096,0.063,1.544,0.186
		c0.183,0.05,0.352,0.112,0.514,0.182c0.018,0.008,0.036,0.033,0.054,0.041c0.162,0.073,0.315,0.266,0.456,0.266h0.039
		c1.159,0.855,1.667,2.105,1.667,3.942v0.837l0,0V37.44h5.559V25.318v-1.914V21.26c0-5.176-3.025-8.622-8.201-8.622
		c-0.031,0,0.077,0,0.077,0v-0.026l0,0c0,0.028-5.786,1.341-6.94,3.695l-0.505-3.242h-4.956V37.44h5.986V24.619
		c0-1.958,0.347-4.15,1.747-5.455C66.806,18.463,67.713,17.95,69.065,17.95z M178.695,12.596c-3.264,0-5.915,1.465-7.36,3.984
		c-1.173-2.392-3.412-3.941-6.638-3.941h-0.01c-0.35,0-0.225-0.024-0.335-0.024c-3.218,0-5.552,1.507-6.904,3.746l-0.47-3.295h-4.96
		v24.373h5.986V24.208c0-3.031,1.446-6.458,4.757-6.458c0.8,0,1.187,0.019,1.937,0.447h0.044c1.236,0.428,1.813,2.02,1.813,4.192
		v1.015v1.917v12.118h5.559V25.321v-1.113c0-3.031,1.474-6.529,4.786-6.529c2.938,0,3.766,1.726,3.766,4.71v0.939l0,0v14.111h5.986
		V25.32v-1.917v-2.32C186.654,16.047,183.871,12.596,178.695,12.596z M10.91,25.039h7.178l5.453,12.4h6.52l-6.007-13.512
		c4.092-1.703,6.005-5.374,6.005-9.249c0-0.008-0.001-0.015-0.001-0.022c0-0.008,0.001,0.047,0.001,0.04
		c0-5.309-3.586-10.182-11.455-10.182h-7.849h-3.04H4.496V37.44h6.414V25.039z M18.604,9.646c3.399,0,5.561,2.335,5.561,4.989v0.047
		c0,2.653-2.162,4.799-5.561,4.799H10.91V9.645L18.604,9.646L18.604,9.646z"/>
</g>
</svg>
