<svg width="95" height="18" viewBox="0 0 95 18" fill="none" xmlns="http://www.w3.org/2000/svg"><g clip-path="url(#clip0)" fill="#000"><path d="M12.058 13.3l.302 4.398h-2.078l-.302-4.27c-.104-1.718-1.357-2.937-3.029-2.937H2.147v7.207H0V0h6.708c3.493 0 5.64 2.1 5.64 5.188 0 1.95-1.114 3.342-2.785 4.12 1.392.754 2.367 2.204 2.495 3.992zM2.147 8.553h4.55c2.483 0 3.411-1.613 3.411-3.365 0-1.753-.94-3.262-3.412-3.262H2.147v6.627zM25.09 17.71h-2.02v-2.45c-.661 1.776-2.25 2.658-4.2 2.658-2.879 0-4.759-2.054-4.759-5.164V4.955h2.02v7.462c0 2.17 1.265 3.644 3.191 3.644 2.17 0 3.748-1.74 3.748-4.224V4.955h2.02V17.71zm2.356-12.755h2.02v2.449c.661-1.776 2.251-2.658 4.2-2.658 2.879 0 4.759 2.054 4.759 5.165v7.787h-2.02v-7.45c0-2.171-1.264-3.645-3.19-3.645-2.171 0-3.75 1.74-3.75 4.225v6.881h-2.019V4.955zm18.557 1.799c-2.577 0-3.308 2.32-3.308 5.338v5.617h-2.02V4.955h2.02v2.576c.534-1.74 1.59-2.576 3.47-2.576h1.381v1.799h-1.543zm1.532 4.572c0-3.84 2.704-6.58 6.475-6.58 3.795 0 6.5 2.728 6.5 6.58 0 3.819-2.705 6.58-6.5 6.58-3.76 0-6.475-2.761-6.475-6.58zm10.909 0c0-2.785-1.8-4.758-4.422-4.758-2.6 0-4.398 1.973-4.398 4.758 0 2.786 1.798 4.759 4.398 4.759 2.623 0 4.422-1.973 4.422-4.759zm3.307 0c0-3.84 2.704-6.58 6.476-6.58 3.795 0 6.499 2.728 6.499 6.58 0 3.819-2.704 6.58-6.5 6.58-3.771 0-6.475-2.761-6.475-6.58zm10.897 0c0-2.785-1.799-4.758-4.421-4.758-2.6 0-4.399 1.973-4.399 4.758 0 2.786 1.8 4.759 4.399 4.759 2.634 0 4.421-1.973 4.421-4.759zm3.726-6.371h2.019v2.449c.476-1.544 1.891-2.658 3.841-2.658 2.1 0 3.749.964 4.201 2.704.488-1.508 2.182-2.692 4.132-2.692 2.762 0 4.421 1.845 4.421 4.932v8.02h-2.02v-7.498c0-2.17-1.09-3.667-2.877-3.667-2.124 0-3.389 1.497-3.389 3.667v7.486h-2.02v-7.486c0-2.17-1.09-3.667-2.854-3.667-2.147 0-3.412 1.497-3.412 3.667v7.486h-2.02V4.955h-.022z"></path></g><defs><clipPath id="clip0"><path fill="#fff" d="M0 0h95v17.907H0z"></path></clipPath></defs></svg>
